<?xml version="1.0" standalone="no"?>
<!DOCTYPE svg PUBLIC "-//W3C//DTD SVG 20010904//EN"
 "http://www.w3.org/TR/2001/REC-SVG-20010904/DTD/svg10.dtd">
<svg version="1.0" xmlns="http://www.w3.org/2000/svg"
 width="752.000000pt" height="752.000000pt" viewBox="0 0 752.000000 752.000000"
 preserveAspectRatio="xMidYMid meet">
<metadata>
Created by potrace 1.11, written by Peter Selinger 2001-2013
</metadata>
<g transform="translate(0.000000,752.000000) scale(0.100000,-0.100000)"
fill="#000000" stroke="none">
<path d="M3548 7515 c-2 -2 -37 -6 -78 -9 -79 -7 -122 -12 -180 -21 -19 -4
-48 -8 -65 -10 -16 -3 -41 -7 -55 -11 -14 -3 -38 -8 -55 -11 -16 -2 -48 -9
-70 -15 -22 -6 -44 -12 -50 -14 -92 -20 -314 -92 -407 -133 -27 -11 -48 -17
-48 -13 0 4 -4 2 -8 -3 -4 -6 -18 -15 -32 -22 -105 -48 -286 -141 -339 -174
-34 -21 -67 -39 -71 -39 -5 0 -10 -3 -12 -7 -1 -5 -41 -34 -88 -65 -182 -122
-478 -386 -588 -525 -19 -23 -44 -53 -55 -67 -50 -56 -87 -105 -87 -114 0 -6
-4 -12 -8 -14 -9 -3 -112 -144 -112 -153 0 -2 -13 -23 -29 -47 -126 -188 -297
-578 -357 -813 -8 -33 -20 -76 -25 -95 -5 -19 -12 -46 -15 -60 -2 -14 -7 -36
-9 -50 -12 -55 -17 -86 -19 -100 -3 -22 -17 -111 -22 -140 -28 -163 -25 -613
6 -815 5 -33 12 -79 15 -102 18 -126 88 -394 138 -525 15 -38 23 -68 20 -68
-3 0 2 -9 12 -20 10 -11 15 -20 11 -20 -3 0 5 -22 19 -50 14 -27 26 -53 26
-57 2 -15 82 -178 101 -205 11 -16 16 -28 12 -28 -4 0 -1 -8 7 -17 8 -10 23
-34 33 -53 62 -116 252 -378 366 -504 95 -106 265 -268 367 -351 7 -5 18 -15
25 -20 24 -20 146 -110 164 -122 11 -7 44 -29 74 -49 126 -83 420 -239 490
-259 3 -1 22 -9 44 -18 21 -9 44 -17 50 -17 7 0 16 -4 22 -9 8 -8 140 -54 190
-66 10 -3 62 -17 114 -31 114 -31 212 -52 325 -68 22 -3 56 -8 75 -11 62 -10
132 -15 250 -20 63 -2 117 -5 120 -6 3 -1 8 -1 12 0 4 0 69 3 145 6 76 3 147
7 158 9 11 2 51 7 88 11 37 3 78 8 90 11 22 4 53 10 105 19 68 12 125 25 232
54 121 33 126 35 150 44 21 8 124 41 130 42 3 0 10 3 15 6 6 4 51 23 100 43
158 63 393 189 539 288 63 44 189 138 236 177 30 25 65 55 79 66 34 28 240
233 276 275 132 154 260 329 340 465 56 95 64 110 115 215 28 58 55 112 60
121 28 53 132 335 145 392 2 12 16 64 30 116 13 52 23 97 20 99 -3 3 -1 10 4
16 9 11 17 54 26 131 2 17 4 30 5 30 4 0 13 68 27 205 9 84 9 497 0 575 -8 70
-17 141 -22 170 -4 31 -34 187 -41 215 -3 14 -9 41 -14 60 -31 133 -87 305
-140 430 -17 41 -32 80 -34 85 -4 20 -91 192 -138 274 -26 46 -48 88 -48 92 0
5 -4 9 -9 9 -5 0 -11 8 -15 18 -6 18 -27 54 -37 62 -3 3 -12 16 -19 29 -7 14
-17 30 -21 35 -5 6 -49 64 -99 129 -49 65 -105 133 -122 153 -67 72 -225 231
-273 274 -86 76 -115 100 -120 100 -3 0 -13 8 -23 18 -22 21 -63 53 -84 67 -8
6 -56 38 -106 73 -50 34 -96 62 -101 62 -5 0 -11 4 -13 8 -8 20 -255 148 -413
215 -114 47 -295 113 -336 121 -8 2 -21 6 -29 9 -8 4 -26 9 -40 11 -14 3 -26
5 -27 7 -2 1 -6 2 -10 3 -76 19 -100 24 -198 41 -44 8 -89 17 -100 19 -11 2
-47 7 -80 10 -33 4 -73 9 -90 12 -36 6 -512 14 -517 9z"/>
</g>
</svg>
