<svg width="39" height="47" viewBox="0 0 39 47" fill="none" xmlns="http://www.w3.org/2000/svg">
<circle cx="19.5" cy="19.5" r="19.5" fill="#3F3D56"/>
<path d="M16.6357 8.752C16.5112 9.34933 16.2375 9.84711 15.8143 10.2453C15.3912 10.6187 14.9059 10.8053 14.3583 10.8053C13.8108 10.8053 13.3752 10.6187 13.0517 10.2453C12.7281 9.84711 12.6037 9.34933 12.6783 8.752C12.8028 8.12978 13.0766 7.61956 13.4997 7.22133C13.9228 6.82311 14.4081 6.624 14.9557 6.624C15.5032 6.624 15.9388 6.82311 16.2623 7.22133C16.5859 7.61956 16.7103 8.12978 16.6357 8.752ZM12.3423 13.008L15.8517 12.5227L13.873 26.9333C13.6241 28.8 13.089 30.1316 12.2677 30.928C11.4463 31.7244 10.3388 32.1227 8.94502 32.1227C8.59657 32.1227 8.17346 32.0604 7.67568 31.936L8.19835 29.3973C8.94502 29.2729 9.43035 29.0862 9.65435 28.8373C10.0277 28.3644 10.289 27.6053 10.4383 26.56L12.3423 13.008ZM34.8547 12.784L29.516 26H26.2307L25.372 17.4133L22.0494 26H18.876L17.3827 12.784H20.8174L21.4894 21.7067L24.7747 12.784H27.6494L28.4707 21.7067L31.5694 12.784H34.8547Z" fill="#FE4A49"/>
</svg>
